<?xml version="1.0" standalone="no"?>
<!DOCTYPE svg PUBLIC "-//W3C//DTD SVG 20010904//EN"
 "http://www.w3.org/TR/2001/REC-SVG-20010904/DTD/svg10.dtd">
<svg version="1.0" xmlns="http://www.w3.org/2000/svg"
 width="300.000000pt" height="300.000000pt" viewBox="0 0 300.000000 300.000000"
 preserveAspectRatio="xMidYMid meet">
<metadata>
Created by potrace 1.10, written by Peter Selinger 2001-2011
</metadata>
<g transform="translate(0.000000,300.000000) scale(0.100000,-0.100000)"
fill="#000000" stroke="none">
<path d="M1070 2405 l0 -145 50 0 50 0 0 -165 0 -165 -68 0 -68 0 -23 -95 -23
-95 -48 0 -48 0 -23 -95 -23 -95 -48 0 c-53 0 -45 12 -81 -130 l-13 -55 -74
-5 -74 -5 -8 -40 c-5 -22 -15 -63 -23 -92 l-15 -52 -47 -3 -48 -3 -23 -90
c-13 -49 -26 -92 -28 -94 -3 -3 -22 -4 -43 -3 -22 2 -43 -3 -47 -9 -4 -7 -17
-51 -29 -98 l-21 -86 -46 -3 -46 -3 -65 -162 -65 -162 749 -3 c412 -1 1086 -1
1498 0 l749 3 -65 162 -65 162 -46 3 -46 3 -21 86 c-12 47 -25 91 -29 98 -4 6
-26 11 -50 11 l-43 0 -17 68 c-33 125 -27 117 -79 120 l-47 3 -15 52 c-8 29
-18 70 -23 92 l-8 40 -74 5 -74 5 -13 55 c-36 142 -28 130 -81 130 l-48 0 -23
95 -23 95 -48 0 -48 0 -23 95 -23 95 -68 0 -68 0 0 165 0 165 50 0 50 0 0 145
0 145 -430 0 -430 0 0 -145z m760 0 l0 -45 -330 0 -330 0 0 45 0 45 330 0 330
0 0 -45z m-90 -285 l0 -140 -50 0 -50 0 0 95 0 95 -140 0 -140 0 0 -95 0 -95
-50 0 -50 0 0 140 0 140 240 0 240 0 0 -140z m-190 -95 l0 -45 -50 0 -50 0 0
45 0 45 50 0 50 0 0 -45z m50 -170 c0 -25 0 -25 -100 -25 -100 0 -100 0 -100
25 0 25 0 25 100 25 100 0 100 0 100 -25z m-304 -72 c-4 -38 -13 -131 -21
-208 -21 -197 -74 -729 -85 -855 -6 -58 -12 -120 -15 -137 l-6 -33 -68 0 -67
0 130 650 c71 358 132 650 134 650 2 0 1 -30 -2 -67z m543 -595 l127 -638 -67
0 -68 0 -6 33 c-3 17 -9 79 -15 137 -11 126 -64 658 -85 855 -17 171 -26 285
-19 265 3 -8 62 -302 133 -652z m-649 628 c0 -7 -3 -28 -6 -45 -6 -29 -9 -31
-51 -31 l-45 0 6 31 c3 17 6 38 6 45 0 10 13 14 45 14 32 0 45 -4 45 -14z
m710 0 c0 -7 3 -28 6 -45 l7 -31 -45 0 c-43 0 -46 2 -52 31 -11 56 -9 59 39
59 32 0 45 -4 45 -14z m-282 -103 c3 -23 2 -23 -117 -23 -111 0 -121 2 -121
18 0 10 3 22 7 26 4 3 57 5 117 4 106 -3 111 -4 114 -25z m-469 -110 c-5 -21
-9 -41 -9 -45 0 -5 -44 -8 -99 -8 l-98 0 10 45 10 45 98 0 97 0 -9 -37z m898
-8 l10 -45 -98 0 c-55 0 -99 3 -99 8 0 4 -4 24 -9 45 l-9 37 97 0 98 0 10 -45z
m-417 -20 l0 -25 -130 0 -130 0 0 25 0 25 130 0 130 0 0 -25z m-513 -142 c-3
-10 -8 -30 -11 -45 l-6 -28 -150 0 c-83 0 -150 3 -150 6 0 4 5 24 12 45 l11
39 149 0 c137 0 149 -1 145 -17z m527 1 c3 -9 6 -20 6 -25 0 -5 -66 -9 -150
-9 -84 0 -150 4 -150 9 0 38 9 41 150 41 116 0 139 -2 144 -16z m544 -23 c7
-21 12 -41 12 -45 0 -3 -67 -6 -150 -6 l-150 0 -6 28 c-3 15 -8 35 -11 45 -4
16 8 17 145 17 l149 0 11 -39z m-528 -126 l0 -25 -160 0 -160 0 0 25 0 25 160
0 160 0 0 -25z m-580 -32 c0 -5 -5 -25 -11 -45 l-10 -38 -224 0 c-124 0 -225
3 -225 8 0 4 5 24 11 45 l10 37 224 0 c124 0 225 -3 225 -7z m1299 -30 c6 -21
11 -41 11 -45 0 -5 -101 -8 -225 -8 l-224 0 -10 38 c-6 20 -11 40 -11 45 0 4
101 7 225 7 l224 0 10 -37z m-707 -78 l5 -25 -177 0 -177 0 5 25 4 25 168 0
168 0 4 -25z m-638 -112 c-4 -21 -9 -41 -11 -45 -2 -5 -56 -8 -119 -8 l-114 0
0 -50 0 -50 106 0 106 0 -7 -42 c-4 -24 -9 -46 -12 -50 -5 -9 -647 -11 -655
-3 -3 3 -1 26 5 50 l10 45 79 0 78 0 0 45 c0 32 -5 47 -16 52 -12 4 -14 14 -9
42 4 20 9 39 11 43 3 5 129 8 280 8 l275 0 -7 -37z m1480 29 c2 -4 7 -24 11
-45 l7 -37 -275 0 c-152 0 -278 3 -280 8 -2 4 -7 24 -11 45 l-7 37 275 0 c151
0 277 -3 280 -8z m-824 -62 c0 -19 -7 -20 -190 -20 -183 0 -190 1 -190 20 0
19 7 20 190 20 183 0 190 -1 190 -20z m10 -145 l0 -25 -200 0 -200 0 0 25 0
25 200 0 200 0 0 -25z m967 -20 c6 -24 8 -47 5 -50 -8 -8 -650 -6 -655 3 -3 4
-8 26 -12 50 l-7 42 329 0 330 0 10 -45z m-949 -122 l3 -23 -220 0 c-208 0
-221 1 -221 18 0 10 3 22 7 26 4 3 102 5 217 4 210 -3 211 -3 214 -25z m-763
-70 c-3 -27 -9 -58 -12 -70 l-5 -23 -399 0 -398 0 15 35 c7 19 21 51 28 70
l15 35 382 0 381 0 -7 -47z m1876 -25 l28 -68 -399 0 -398 0 -5 23 c-3 12 -9
43 -12 70 l-7 47 383 -2 382 -3 28 -67z m-1103 -45 l3 -23 -230 0 c-217 0
-231 1 -231 18 0 10 3 22 7 26 4 3 106 5 227 4 221 -3 221 -3 224 -25z"/>
<path d="M600 930 l0 -50 45 0 45 0 0 44 c0 48 -9 56 -61 56 -28 0 -29 -1 -29
-50z"/>
</g>
</svg>
