<?xml version="1.0" standalone="no"?>
<!DOCTYPE svg PUBLIC "-//W3C//DTD SVG 20010904//EN"
 "http://www.w3.org/TR/2001/REC-SVG-20010904/DTD/svg10.dtd">
<svg version="1.0" xmlns="http://www.w3.org/2000/svg"
 width="300.000000pt" height="300.000000pt" viewBox="0 0 300.000000 300.000000"
 preserveAspectRatio="xMidYMid meet">
<metadata>
Created by potrace 1.10, written by Peter Selinger 2001-2011
</metadata>
<g transform="translate(0.000000,300.000000) scale(0.100000,-0.100000)"
fill="#000000" stroke="none">
<path d="M719 2436 c-173 -61 -365 -202 -465 -343 -49 -67 -114 -200 -114
-231 0 -11 9 -39 20 -63 28 -62 27 -170 -1 -216 -16 -26 -20 -44 -16 -81 25
-220 25 -226 6 -251 -18 -22 -19 -46 -19 -340 0 -174 3 -327 7 -340 l6 -24
486 4 c267 2 810 0 1206 -5 560 -7 752 -6 866 4 81 7 152 15 157 19 8 5 12
116 12 350 l1 343 -23 25 c-13 14 -62 51 -109 82 -174 117 -450 187 -780 198
-209 7 -219 5 -219 -46 l0 -40 -147 -3 c-142 -3 -149 -2 -166 19 -9 12 -38 33
-63 47 -41 23 -58 26 -144 26 l-97 0 -14 115 c-12 92 -12 115 -2 115 9 0 11
16 7 63 -9 94 -5 91 -82 84 -37 -3 -74 -8 -83 -12 -13 -5 -17 4 -23 52 -4 32
-14 117 -22 188 -8 72 -17 140 -20 151 -4 16 0 23 15 27 26 6 29 52 5 85 -21
30 -97 29 -185 -2z m150 -30 c9 -11 -2 -15 -61 -25 -128 -21 -300 -122 -430
-253 -66 -67 -130 -170 -162 -262 -13 -36 -26 -63 -30 -59 -32 32 62 226 161
332 147 159 473 326 522 267z m-9 -100 c0 -33 0 -34 -52 -38 -52 -4 -177 -53
-165 -64 3 -3 31 3 62 15 67 25 172 40 161 23 -4 -7 -17 -12 -30 -12 -32 0
-113 -29 -127 -46 -16 -20 4 -18 74 6 68 24 87 25 87 5 0 -9 -9 -15 -24 -15
-32 0 -86 -20 -86 -32 0 -9 18 -7 86 9 17 4 22 -1 28 -28 3 -17 6 -47 6 -65 0
-28 -4 -34 -22 -34 -23 -1 -58 -21 -58 -34 0 -4 20 -4 45 0 38 5 45 4 45 -10
0 -10 -9 -16 -24 -16 -24 0 -54 -26 -42 -37 3 -3 18 -1 32 6 18 8 30 9 37 2
12 -12 10 -13 -102 -36 -169 -34 -435 -143 -534 -218 -52 -41 -57 -43 -57 -24
0 8 11 20 25 27 32 17 32 34 0 26 -17 -4 -25 -2 -25 6 0 7 25 70 56 140 64
146 124 226 234 311 135 106 255 165 338 166 30 1 32 -1 32 -33z m223 -393 c3
-5 8 -27 12 -50 l7 -43 -74 0 c-303 -1 -691 -139 -823 -292 -33 -39 -35 -40
-35 -17 0 40 55 112 120 158 149 105 466 214 695 239 44 5 83 10 87 11 4 0 9
-2 11 -6z m-9 -205 c4 -51 10 -102 12 -114 5 -20 0 -22 -93 -28 -298 -21 -638
-122 -754 -224 -45 -39 -49 -39 -49 -4 0 16 8 32 20 40 29 18 25 36 -5 28 -65
-16 9 102 107 172 164 116 409 192 693 215 22 2 45 4 51 5 7 1 14 -31 18 -90z
m1198 -202 c168 -32 280 -66 378 -117 109 -57 237 -166 169 -144 -52 17 -89
22 -95 14 -6 -10 0 -13 65 -32 25 -7 46 -18 49 -25 3 -9 -3 -10 -24 -2 -15 6
-35 8 -43 4 -12 -4 -4 -11 27 -25 40 -17 42 -20 42 -60 0 -30 -3 -40 -14 -36
-7 3 -67 21 -132 41 -222 66 -440 102 -696 113 -134 6 -148 8 -148 24 0 19 8
19 83 4 9 -2 17 1 17 5 0 9 -62 30 -88 30 -7 0 -10 5 -7 10 3 6 20 10 36 10
41 0 27 20 -14 21 -29 0 -30 1 -10 9 16 7 23 21 28 54 4 24 4 49 0 55 -3 6
-26 11 -50 11 -61 0 -75 8 -75 41 0 27 2 28 53 31 101 6 313 -11 449 -36z
m-968 2 c9 -35 7 -41 -11 -33 -28 10 -287 7 -398 -5 -222 -24 -459 -90 -576
-159 -34 -20 -84 -58 -111 -85 -41 -40 -49 -45 -43 -25 24 79 164 176 335 233
212 71 358 93 616 95 180 1 182 1 188 -21z m80 -12 c27 -25 36 -42 36 -66 l0
-32 -45 34 c-25 18 -45 36 -45 41 0 4 0 18 0 32 0 33 12 32 54 -9z m-83 -113
c1 -38 4 -127 8 -199 l6 -131 -165 -7 c-307 -12 -574 -44 -823 -97 -76 -16
-144 -29 -152 -29 -12 0 -15 19 -15 98 0 94 2 101 30 140 87 121 294 214 581
261 166 27 170 28 362 29 l167 2 1 -67z m514 58 c59 -6 60 -7 63 -38 3 -32 3
-33 -30 -25 -18 4 -115 7 -215 7 l-183 0 0 33 0 32 153 -1 c83 -1 179 -4 212
-8z m-412 -77 c12 -17 16 -51 18 -165 1 -79 -1 -145 -5 -146 -3 -2 -21 -3 -38
-3 l-33 0 -3 153 c-1 83 -5 170 -9 191 l-5 39 29 -24 c16 -13 37 -33 46 -45z
m378 -10 l44 -6 -3 -152 -3 -151 -104 3 -105 3 0 29 c0 55 -7 60 -80 60 l-67
0 -7 38 c-3 20 -6 70 -6 110 l0 72 144 0 c79 0 163 -3 187 -6z m319 -149 c217
-14 420 -53 628 -120 l112 -36 0 -35 c0 -24 -5 -34 -15 -34 -8 0 -15 -7 -15
-15 0 -8 7 -15 15 -15 9 0 15 -9 15 -24 0 -20 -4 -22 -26 -18 -20 4 -25 1 -22
-9 3 -8 14 -15 26 -17 12 -2 22 -10 22 -19 0 -11 -7 -14 -27 -10 -91 20 -236
28 -436 25 l-227 -3 0 68 c0 51 3 67 14 67 9 0 16 -12 18 -27 3 -32 30 -47 97
-58 l44 -7 -5 91 c-5 107 -24 144 -77 149 -47 5 -61 -12 -61 -74 l0 -54 -42 3
-43 3 -5 55 c-6 63 -22 89 -55 89 -34 0 -57 -34 -63 -90 l-5 -50 -58 0 c-46 0
-59 3 -59 15 0 10 10 15 30 15 17 0 30 5 30 10 0 6 -13 10 -30 10 -20 0 -30 5
-30 15 0 10 10 15 31 15 17 0 28 4 24 10 -3 6 -17 10 -31 10 -14 0 -24 6 -24
15 0 12 9 13 46 8 38 -5 46 -3 42 8 -3 8 -22 15 -46 17 -29 2 -42 8 -42 18 0
13 13 14 78 10 42 -3 120 -8 172 -11z m-57 -72 c3 -5 8 -29 12 -55 l7 -48 -32
0 -32 0 7 48 c8 52 12 62 25 62 5 0 11 -3 13 -7z m215 -26 c6 -7 14 -43 18
-80 l7 -67 -32 0 -31 0 0 80 c0 61 3 80 14 80 7 0 18 -6 24 -13z m-678 -34 l0
-38 -60 3 -60 4 0 34 0 34 60 0 60 0 0 -37z m110 -79 c0 -21 -4 -24 -40 -24
-37 0 -40 2 -40 28 0 26 2 27 40 24 34 -4 40 -7 40 -28z m229 19 c86 -6 92 -7
89 -27 -2 -12 -9 -21 -15 -20 -7 1 -71 2 -142 3 l-129 1 -4 25 c-5 24 -4 25
52 25 31 0 98 -3 149 -7z m-339 -221 l0 -219 -27 5 -28 4 0 136 c0 154 -15
205 -68 230 -41 20 -95 -9 -124 -68 -20 -39 -23 -59 -23 -172 l0 -128 -26 0
-27 0 6 68 c7 90 -7 224 -28 256 -36 55 -118 37 -156 -34 -16 -29 -19 -57 -19
-162 l0 -128 -34 0 -33 0 5 93 c5 102 -9 191 -35 219 -20 22 -71 23 -102 2
-39 -28 -51 -73 -51 -196 l0 -113 -43 -1 -43 -1 1 111 c0 91 -4 118 -20 151
-16 33 -26 41 -52 43 -41 4 -69 -11 -93 -51 -17 -27 -20 -51 -20 -144 l0 -113
-42 0 -43 0 0 104 c0 90 -3 108 -21 133 -26 35 -62 40 -97 13 -36 -28 -51 -88
-44 -177 l5 -73 -64 0 c-62 0 -85 12 -43 23 12 3 18 10 14 17 -4 6 -13 9 -21
6 -10 -4 -14 2 -14 19 0 18 5 25 19 25 27 0 51 10 51 22 0 6 -16 8 -35 6 -42
-5 -47 13 -12 43 21 19 21 19 2 17 -41 -5 -28 16 19 32 28 9 52 22 54 28 5 16
-21 15 -65 -3 -43 -18 -43 -18 -43 -2 0 8 28 20 70 31 39 10 70 22 70 27 0 15
-53 9 -98 -11 -40 -18 -42 -18 -42 -1 0 15 18 22 103 40 168 36 377 70 534 86
209 21 218 21 516 23 l267 2 0 -218z m548 191 c-2 -16 -6 -27 -10 -25 -5 1
-24 2 -43 2 -31 0 -35 3 -33 25 2 23 7 25 46 25 41 0 43 -1 40 -27z m-77 -49
l67 -7 6 -151 c4 -83 9 -163 12 -178 5 -27 4 -28 -33 -28 l-38 0 4 81 c5 118
-6 187 -34 215 -34 34 -76 31 -113 -5 -36 -36 -42 -65 -42 -192 0 -84 -2 -99
-16 -99 -13 0 -15 10 -9 63 8 82 -8 203 -31 228 -19 21 -73 26 -105 9 -38 -21
-49 -62 -49 -185 0 -114 0 -115 -23 -115 -23 0 -24 3 -30 113 -4 61 -7 145 -7
185 l0 72 188 0 c103 0 217 -3 253 -6z m-647 -46 c3 -13 7 -87 10 -165 l5
-143 -43 0 -44 0 4 43 c2 23 5 80 7 127 5 84 26 160 46 160 6 0 13 -10 15 -22z
m64 -5 c28 -74 25 -303 -4 -303 -11 0 -14 27 -14 134 0 73 -3 148 -6 165 -8
39 10 41 24 4z m-300 -20 c6 -21 14 -93 18 -160 l7 -123 -54 0 -55 0 3 98 c4
111 18 179 40 205 23 24 28 22 41 -20z m40 0 c14 -37 21 -165 13 -228 -5 -41
-8 -27 -13 75 -4 69 -11 137 -17 153 -6 15 -7 27 -2 27 5 0 13 -12 19 -27z
m-269 -17 c18 -38 28 -240 12 -250 -8 -5 -11 15 -11 71 -1 71 -12 120 -45 197
-14 32 28 15 44 -18z m-279 -1 c17 -20 31 -140 23 -207 -9 -95 -23 -66 -23 50
0 89 -3 112 -20 140 -15 24 -16 32 -6 32 7 0 19 -7 26 -15z m260 -158 c5 -50
7 -93 5 -96 -3 -2 -24 -4 -47 -4 l-42 0 3 104 c2 66 8 117 18 139 l15 35 20
-44 c11 -25 23 -83 28 -134z m1092 139 c7 -11 14 -74 16 -138 4 -96 2 -118 -9
-118 -11 0 -14 23 -15 104 0 86 -4 109 -21 139 -12 19 -19 38 -16 40 9 10 33
-5 45 -27z m-222 9 c17 -21 32 -152 24 -215 l-8 -55 -8 90 c-9 98 -22 151 -46
178 -14 15 -13 17 5 17 11 0 26 -7 33 -15z m980 -8 l65 -13 3 -112 c3 -107 2
-112 -18 -112 -18 0 -20 6 -20 68 0 77 -17 112 -56 112 -46 0 -64 -32 -64
-114 0 -68 -2 -74 -22 -80 -42 -11 -43 -8 -43 80 0 78 -2 88 -24 105 -30 25
-44 24 -78 -5 -26 -23 -28 -29 -28 -105 l0 -81 -32 -1 c-18 -1 -38 -2 -45 -3
-8 -1 -11 19 -9 66 5 147 -49 210 -120 139 -28 -28 -29 -33 -29 -119 l0 -90
-41 3 c-22 1 -41 4 -43 6 -2 2 -6 67 -10 143 l-7 139 278 -6 c163 -4 305 -12
343 -20z m-2151 -24 c13 -44 13 -77 5 -162 -6 -57 -8 -61 -33 -61 l-26 0 3 92
c4 98 17 168 32 168 5 0 14 -17 19 -37z m1144 -155 l5 -78 -38 0 -39 0 6 108
c3 59 10 118 16 132 9 24 11 22 27 -30 9 -30 20 -90 23 -132z m199 146 c5 -16
10 -73 12 -126 l3 -98 -36 0 -36 0 6 112 c4 62 10 121 14 131 10 25 27 16 37
-19z m-1563 2 c17 -20 27 -178 13 -202 -10 -17 -11 -15 -12 15 0 58 -21 161
-36 175 -7 8 -10 16 -7 20 11 10 30 7 42 -8z m-34 -110 c3 -39 9 -79 11 -88 4
-15 -1 -18 -27 -18 l-32 0 7 92 c10 137 29 144 41 14z m1985 48 c13 -33 13
-161 0 -169 -6 -4 -10 17 -10 57 -1 35 -7 80 -14 101 -12 31 -12 37 0 37 8 0
19 -12 24 -26z m-40 -90 c0 -76 -2 -85 -17 -82 -16 3 -18 13 -15 73 4 81 10
108 23 100 5 -4 9 -44 9 -91z m264 55 c9 -49 7 -129 -4 -129 -6 0 -10 28 -10
64 0 35 -3 71 -6 80 -3 9 -2 16 4 16 5 0 12 -14 16 -31z m-44 -54 c0 -43 -4
-75 -10 -75 -11 0 -14 108 -4 134 11 29 14 17 14 -59z m229 8 c-1 -63 -2 -65
-10 -28 -11 56 -11 95 1 95 6 0 10 -28 9 -67z m-39 -8 c0 -40 -4 -65 -11 -65
-7 0 -9 19 -5 58 3 31 5 60 6 65 0 4 2 7 5 7 3 0 5 -29 5 -65z"/>
<path d="M542 2118 c-27 -14 -36 -45 -29 -100 8 -59 52 -78 95 -40 18 15 20
24 14 82 -6 60 -9 65 -32 67 -14 1 -35 -3 -48 -9z m39 -121 c-5 -5 -14 -6 -20
-3 -15 10 -14 79 2 95 10 10 14 3 20 -35 5 -28 4 -51 -2 -57z"/>
<path d="M373 1995 c-20 -9 -35 -23 -39 -40 -9 -36 2 -98 21 -111 12 -9 5 -15
-35 -34 -48 -23 -64 -40 -37 -40 8 0 70 25 138 55 68 30 170 69 227 87 56 18
102 38 102 44 0 17 -71 1 -181 -41 -142 -55 -129 -56 -129 12 0 52 -12 84 -29
83 -4 -1 -20 -7 -38 -15z m32 -71 c5 -34 3 -49 -6 -55 -8 -5 -17 -3 -21 4 -9
15 -10 81 -1 90 14 15 21 5 28 -39z"/>
<path d="M918 1753 c-22 -26 -30 -68 -22 -120 8 -52 18 -58 73 -43 40 10 41
12 41 53 0 104 -48 161 -92 110z m42 -40 c0 -10 3 -35 6 -55 5 -31 4 -38 -10
-38 -13 0 -16 11 -16 55 0 30 5 55 10 55 6 0 10 -8 10 -17z"/>
<path d="M735 1725 c-22 -21 -25 -33 -25 -95 0 -81 6 -87 69 -70 l41 11 0 54
c0 75 -21 124 -53 125 -4 0 -19 -11 -32 -25z m43 -82 c2 -38 -1 -52 -13 -56
-12 -5 -15 4 -15 54 0 77 23 78 28 2z"/>
<path d="M546 1677 c-21 -15 -33 -98 -22 -142 6 -25 10 -27 44 -20 52 9 65 29
57 89 -10 83 -35 105 -79 73z m39 -125 c-3 -7 -9 -10 -15 -7 -12 7 -14 88 -2
99 8 9 24 -73 17 -92z"/>
<path d="M396 1608 c-20 -28 -22 -134 -3 -141 7 -3 27 1 45 9 30 12 32 16 32
64 0 28 -5 60 -10 71 -14 26 -45 24 -64 -3z m35 -101 c-8 -8 -11 2 -10 39 l1
49 10 -38 c7 -28 7 -42 -1 -50z"/>
<path d="M294 1542 c-50 -33 -42 -147 8 -135 38 9 48 23 48 65 0 62 -24 92
-56 70z"/>
<path d="M1795 1512 c6 -5 41 -12 78 -16 54 -5 68 -4 65 6 -3 9 -29 14 -79 16
-46 2 -70 -1 -64 -6z"/>
<path d="M1980 1441 c0 -55 11 -84 24 -63 8 13 -6 122 -15 122 -5 0 -9 -27 -9
-59z"/>
<path d="M2032 1488 c-15 -15 -16 -122 -2 -149 8 -14 21 -19 55 -19 l45 0 0
74 c0 54 -4 79 -16 90 -18 19 -65 21 -82 4z m58 -83 c0 -42 -3 -55 -15 -55
-12 0 -15 13 -15 55 0 42 3 55 15 55 12 0 15 -13 15 -55z"/>
<path d="M2327 1443 c-4 -3 -7 -35 -7 -70 0 -59 2 -64 26 -73 14 -6 36 -10 50
-10 23 0 24 3 24 68 0 40 -5 73 -12 80 -13 13 -70 17 -81 5z m53 -73 c0 -27
-4 -50 -10 -50 -5 0 -10 23 -10 50 0 28 5 50 10 50 6 0 10 -22 10 -50z"/>
<path d="M2170 1431 c0 -9 110 -25 117 -17 3 3 2 9 -2 15 -7 13 -115 15 -115
2z"/>
<path d="M2556 1354 c-3 -9 -6 -40 -6 -69 0 -59 9 -70 65 -76 l30 -4 3 60 c5
92 -1 105 -47 105 -26 0 -41 -5 -45 -16z m56 -56 c5 -47 2 -61 -13 -53 -12 8
-12 95 0 95 5 0 11 -19 13 -42z"/>
<path d="M1990 1290 c0 -6 44 -10 111 -10 71 0 108 4 104 10 -3 6 -52 10 -111
10 -63 0 -104 -4 -104 -10z"/>
<path d="M2305 1260 c-10 -16 -10 -16 88 -32 91 -15 115 -10 75 16 -31 19
-154 31 -163 16z"/>
<path d="M1094 1379 c-16 -18 -19 -37 -19 -128 0 -158 0 -157 87 -164 40 -2
77 -2 82 1 11 6 1 208 -13 244 -25 66 -97 91 -137 47z m42 -55 c-8 -31 3 -164
14 -164 4 0 6 35 6 78 -1 43 4 86 11 97 11 19 12 19 22 -7 6 -15 13 -67 17
-116 l7 -90 -44 -4 c-24 -3 -45 -4 -46 -3 -2 1 -6 47 -9 103 -5 75 -4 105 6
117 18 22 23 19 16 -11z"/>
<path d="M815 1369 c-152 -27 -288 -62 -292 -76 -3 -8 6 -9 34 -2 21 5 40 9
43 9 3 0 4 -46 2 -101 -2 -63 1 -106 7 -112 17 -17 13 -24 -19 -30 -45 -10
-38 -31 8 -24 20 3 66 11 102 16 36 6 125 12 198 15 74 3 138 8 143 11 16 10
10 25 -10 25 -16 0 -19 11 -23 98 -3 62 -11 111 -21 131 -9 18 -13 39 -10 47
7 19 -23 18 -162 -7z m24 -57 c-4 -21 -5 -79 -1 -130 5 -61 4 -92 -3 -92 -5 0
-27 -3 -47 -6 l-38 -7 0 74 c0 69 -8 122 -24 160 -6 13 3 18 46 26 29 6 58 11
64 12 9 1 9 -10 3 -37z m60 -47 c0 -36 3 -81 7 -100 12 -65 24 -35 24 59 0
137 26 141 36 6 3 -36 7 -79 9 -97 3 -31 3 -31 -45 -35 l-48 -3 -4 100 c-4 86
2 135 16 135 3 0 4 -29 5 -65z m-221 -127 c9 -10 12 4 12 68 0 55 3 74 10 64
15 -23 13 -170 -2 -170 -7 0 -23 -3 -35 -6 -23 -6 -23 -5 -23 93 0 120 13 145
20 39 3 -41 11 -81 18 -88z"/>
<path d="M402 1274 c-7 -3 -19 -19 -27 -34 -18 -36 -20 -178 -3 -215 10 -23
16 -26 42 -20 17 4 48 9 70 12 l39 6 -6 100 c-4 77 -10 106 -25 126 -18 25
-61 37 -90 25z m30 -104 c2 -38 9 -75 16 -82 11 -11 12 2 6 65 -4 49 -3 77 3
77 11 0 23 -69 23 -135 0 -39 -2 -42 -34 -52 -34 -10 -34 -10 -40 26 -8 47 -8
135 0 155 13 33 22 14 26 -54z"/>
<path d="M199 1144 c-18 -21 -25 -145 -10 -173 10 -17 20 -21 56 -19 24 0 49
5 56 9 17 10 6 142 -15 174 -19 29 -66 34 -87 9z m42 -66 l2 -43 6 40 c5 30 8
36 14 22 13 -34 8 -107 -8 -114 -23 -8 -25 -3 -32 71 -4 46 -3 66 6 66 6 0 12
-18 12 -42z"/>
<path d="M1366 1239 c-7 -54 -1 -74 14 -49 12 19 13 100 1 100 -5 0 -11 -23
-15 -51z"/>
<path d="M1682 1320 c-12 -5 -27 -21 -32 -36 -13 -34 -1 -180 16 -195 7 -5 36
-9 66 -7 l53 3 3 42 c5 64 -15 154 -40 180 -23 25 -31 26 -66 13z m40 -52 c10
-9 18 -38 23 -85 l6 -73 -30 0 -29 0 -4 78 c-5 98 -1 107 34 80z"/>
<path d="M1496 1298 c-19 -27 -21 -111 -3 -126 6 -5 37 -12 67 -13 l55 -4 -2
55 c-3 67 -27 104 -71 108 -22 2 -34 -3 -46 -20z m73 -55 c15 -52 15 -53 -19
-53 -28 0 -30 2 -30 38 0 21 3 42 7 45 16 16 33 4 42 -30z"/>
<path d="M2381 1121 c-18 -18 -21 -33 -21 -100 0 -61 4 -82 16 -92 19 -15 111
-39 119 -31 9 9 5 136 -5 173 -12 42 -24 55 -62 64 -19 5 -32 1 -47 -14z m59
-36 c7 -8 15 -46 18 -84 l5 -69 -26 5 c-29 6 -37 26 -37 99 0 65 13 81 40 49z"/>
<path d="M2529 1073 c-7 -19 -8 -50 -2 -92 l8 -65 49 -12 c28 -7 54 -10 59 -7
5 3 7 39 5 79 -6 92 -25 124 -73 124 -29 0 -37 -5 -46 -27z m72 -44 c4 -13 7
-41 8 -61 1 -31 -2 -38 -18 -38 -16 0 -21 10 -26 54 -4 30 -4 60 0 66 10 17
29 7 36 -21z"/>
<path d="M2692 1048 c-17 -17 -15 -113 3 -128 8 -6 29 -13 47 -13 29 -2 33 1
36 27 10 88 -42 158 -86 114z m48 -74 c0 -19 -4 -34 -10 -34 -5 0 -10 18 -10
41 0 24 4 38 10 34 6 -3 10 -22 10 -41z"/>
<path d="M1500 980 c0 -6 7 -27 15 -47 11 -27 18 -34 26 -26 16 16 3 60 -21
73 -14 8 -20 8 -20 0z"/>
<path d="M978 966 c-135 -13 -177 -32 -48 -22 47 4 144 9 215 13 80 4 120 9
105 14 -35 10 -135 8 -272 -5z"/>
<path d="M682 933 c2 -5 13 -27 24 -50 19 -42 36 -51 42 -21 3 17 -44 78 -60
78 -5 0 -8 -3 -6 -7z"/>
<path d="M1051 921 c-21 -21 -31 -88 -11 -76 6 3 10 12 10 18 0 7 7 25 15 41
19 36 13 44 -14 17z"/>
<path d="M481 909 c-25 -5 -52 -16 -60 -25 -15 -15 -14 -16 10 -10 15 3 57 10
94 15 82 12 111 32 45 30 -25 -1 -65 -5 -89 -10z"/>
<path d="M500 841 c13 -25 33 -28 28 -4 -2 10 -11 19 -21 21 -16 3 -17 1 -7
-17z"/>
<path d="M1701 911 c-7 -5 -9 -10 -5 -13 16 -8 124 4 124 13 0 11 -100 12
-119 0z"/>
<path d="M2231 794 c-22 -29 -27 -59 -11 -69 6 -3 10 0 10 8 0 8 11 31 25 51
29 43 9 52 -24 10z"/>
<path d="M2453 798 c-23 -11 -40 -44 -29 -56 4 -3 15 4 26 16 12 12 26 22 33
22 7 0 22 7 33 15 18 14 18 14 -11 14 -16 0 -40 -5 -52 -11z"/>
<path d="M2633 803 c-7 -2 -13 -12 -13 -20 0 -10 5 -13 18 -8 9 4 41 9 69 12
29 3 50 10 47 14 -5 9 -100 11 -121 2z"/>
</g>
</svg>
