<?xml version="1.0" standalone="no"?>
<!DOCTYPE svg PUBLIC "-//W3C//DTD SVG 20010904//EN"
 "http://www.w3.org/TR/2001/REC-SVG-20010904/DTD/svg10.dtd">
<svg version="1.0" xmlns="http://www.w3.org/2000/svg"
 width="300.000000pt" height="300.000000pt" viewBox="0 0 300.000000 300.000000"
 preserveAspectRatio="xMidYMid meet">
<metadata>
Created by potrace 1.10, written by Peter Selinger 2001-2011
</metadata>
<g transform="translate(0.000000,300.000000) scale(0.100000,-0.100000)"
fill="#000000" stroke="none">
<path d="M1483 2900 c-37 -15 -50 -51 -96 -275 l-12 -60 -70 -2 c-122 -5 -289
-25 -324 -39 -18 -8 -51 -14 -72 -14 -46 0 -48 -8 -13 -50 15 -17 24 -33 21
-36 -3 -4 -36 10 -74 30 -87 46 -105 48 -83 5 15 -27 -2 -24 -29 5 -20 21 -36
25 -109 31 -54 5 -98 14 -117 25 -42 25 -130 33 -149 15 -8 -9 -34 -15 -58
-15 -24 0 -50 -5 -58 -10 -13 -9 -10 -15 19 -39 43 -38 99 -51 209 -51 l89 0
46 -77 c54 -92 93 -137 125 -145 12 -4 70 -2 127 4 l104 10 108 -43 c59 -24
109 -44 111 -45 1 0 -2 -84 -8 -185 -11 -195 -6 -241 29 -269 17 -13 18 -23
10 -90 -9 -79 -5 -118 17 -161 11 -21 10 -98 -2 -450 -8 -233 -16 -438 -19
-455 -5 -30 -10 -33 -75 -50 -69 -18 -70 -18 -70 -51 0 -29 -5 -36 -29 -44
-28 -10 -29 -13 -35 -87 -3 -42 -7 -102 -8 -132 l-3 -55 545 0 545 0 -3 55
c-1 30 -5 90 -8 132 -6 74 -7 77 -35 87 -24 8 -29 15 -29 44 0 33 -1 33 -70
51 -44 12 -71 24 -74 35 -3 9 -10 130 -16 270 -10 228 -10 255 4 263 13 8 16
32 16 146 0 92 4 142 12 150 12 12 9 92 -32 786 -11 176 -18 322 -16 324 6 6
24 -87 31 -158 3 -36 8 -88 11 -116 l5 -52 62 21 c47 15 99 21 215 25 l152 4
0 37 c0 20 9 49 21 66 19 27 20 28 13 5 -12 -38 -10 -83 3 -87 17 -6 72 74 85
124 6 24 16 47 22 51 6 4 54 7 106 7 101 1 165 21 206 66 16 17 16 22 4 29 -8
6 -36 10 -62 10 -27 0 -48 5 -48 10 0 18 -84 10 -130 -12 -39 -18 -66 -21
-208 -23 l-163 -3 -44 -41 c-25 -23 -47 -41 -50 -41 -2 0 4 15 15 33 11 17 20
35 20 39 0 4 -25 12 -56 19 -53 12 -60 11 -96 -9 l-40 -21 17 25 c9 15 13 30
8 34 -11 11 -168 58 -220 66 -40 6 -42 5 -48 -22 -4 -16 -9 -38 -12 -49 -5
-18 -4 -19 12 -5 17 14 18 11 12 -61 -4 -42 -9 -83 -13 -92 -8 -23 -37 -29
-70 -16 l-29 12 31 8 c31 9 49 32 39 49 -3 5 -19 12 -36 15 -18 4 -27 10 -21
14 6 3 -22 7 -61 7 -50 1 -86 7 -119 22 -52 23 -63 37 -22 29 27 -5 26 -3 -20
31 -40 31 -16 27 61 -8 145 -67 252 -38 183 50 -21 27 -27 75 -10 85 6 3 10 0
10 -8 0 -18 38 -53 47 -43 4 4 7 70 8 146 0 136 -1 140 -25 164 -28 27 -101
41 -137 26z m111 -39 c24 -27 30 -81 16 -143 -19 -82 -44 -101 -70 -53 -12 22
-11 27 6 39 15 12 17 17 7 27 -7 7 -13 24 -13 39 l1 25 15 -27 c19 -36 49 -38
40 -4 -3 14 -2 28 4 31 17 11 11 24 -20 40 -30 16 -41 45 -17 45 8 0 22 -8 31
-19z m-295 -491 c29 -5 69 -10 87 -10 19 0 34 -4 34 -10 0 -27 -188 2 -206 32
-4 6 1 8 12 4 11 -3 43 -10 73 -16z m500 -440 c11 -228 23 -446 26 -483 4 -53
2 -67 -7 -63 -7 3 -21 9 -31 12 -12 4 -16 12 -12 23 15 37 16 87 6 276 -18
324 -24 557 -17 609 4 26 9 46 11 44 2 -1 12 -190 24 -418z m-174 330 c8 -14
-4 -70 -15 -70 -5 0 -22 11 -37 25 -22 19 -24 24 -10 25 9 0 16 3 16 8 -3 17
2 22 20 22 11 0 23 -5 26 -10z m-55 -95 c24 -13 30 -22 30 -49 0 -18 -6 -39
-14 -45 -12 -10 -19 -2 -40 45 -14 31 -26 58 -26 60 0 8 22 3 50 -11z m-38
-183 c32 -29 61 -101 89 -217 29 -124 27 -128 -35 -66 -29 29 -63 70 -75 92
l-22 39 32 -7 32 -6 -33 59 c-19 32 -44 75 -56 95 -13 20 -20 40 -16 43 12 12
56 -5 84 -32z m9 -390 c23 -42 49 -87 57 -99 19 -30 9 -29 -22 2 -66 66 -135
199 -161 308 -26 110 -16 105 35 -16 27 -65 68 -153 91 -195z m-81 -13 c0 -14
71 -135 132 -227 47 -71 60 -112 36 -112 -7 0 -65 26 -128 57 l-115 58 42 3
c62 5 65 14 38 122 -27 105 -30 124 -15 115 6 -3 10 -11 10 -16z m363 -253 c0
-28 -16 -51 -43 -66 -16 -9 -16 -6 -4 28 7 20 13 50 14 67 0 27 1 28 16 13 9
-9 17 -28 17 -42z m17 -148 l0 -72 -28 34 -29 33 26 39 c13 21 26 38 28 38 2
0 3 -32 3 -72z m-402 -646 c6 -2 13 -2 14 0 1 2 5 127 8 278 l6 275 2 -304 c2
-270 0 -302 -13 -291 -10 9 -33 11 -70 7 -30 -3 -55 -3 -55 -1 0 3 15 11 33
19 34 14 34 15 40 97 4 46 8 180 9 298 l3 215 5 -294 c4 -223 8 -295 18 -299z
m288 71 c6 -82 16 -104 28 -60 3 12 6 114 7 227 l2 205 8 -230 c4 -126 10
-238 13 -248 4 -16 0 -17 -27 -11 -18 4 -59 10 -92 13 l-60 6 0 275 -1 275 6
-257 c3 -141 9 -260 13 -264 21 -21 27 39 28 271 l2 250 8 -258 c4 -142 9
-261 12 -264 22 -22 27 28 29 300 l1 292 9 -220 c4 -121 11 -257 14 -302z
m173 -280 l-1 -68 -12 50 c-12 50 -13 50 -59 58 -145 23 -147 25 -34 26 l107
1 -1 -67z"/>
</g>
</svg>
