<?xml version="1.0" standalone="no"?>
<!DOCTYPE svg PUBLIC "-//W3C//DTD SVG 20010904//EN"
 "http://www.w3.org/TR/2001/REC-SVG-20010904/DTD/svg10.dtd">
<svg version="1.0" xmlns="http://www.w3.org/2000/svg"
 width="300.000000pt" height="300.000000pt" viewBox="0 0 300.000000 300.000000"
 preserveAspectRatio="xMidYMid meet">
<metadata>
Created by potrace 1.10, written by Peter Selinger 2001-2011
</metadata>
<g transform="translate(0.000000,300.000000) scale(0.100000,-0.100000)"
fill="#000000" stroke="none">
<path d="M1875 2568 c-18 -10 -80 -60 -199 -160 -52 -44 -130 -164 -237 -367
-101 -191 -114 -211 -137 -211 -55 0 -100 -26 -173 -97 -67 -65 -80 -73 -97
-64 -11 6 -64 67 -117 136 -54 69 -107 130 -117 136 -25 13 -69 -15 -149 -93
-84 -83 -163 -230 -258 -477 -43 -112 -93 -169 -196 -225 -44 -24 -97 -49
-118 -57 -74 -26 -72 -15 -75 -360 l-4 -309 1501 0 1501 0 0 690 0 691 -47 20
c-25 11 -82 45 -126 76 -118 82 -151 94 -286 103 -64 4 -126 12 -137 18 -11 6
-43 37 -71 70 -29 32 -66 65 -82 72 -32 13 -96 100 -141 190 -46 92 -103 181
-132 205 -32 27 -71 32 -103 13z m-270 -1132 c29 -8 40 -17 40 -31 0 -17 -9
-21 -60 -25 -33 -3 -82 -16 -108 -28 l-48 -22 -60 30 c-32 17 -59 32 -59 34 0
3 4 16 10 30 9 26 10 26 127 25 65 0 136 -6 158 -13z m264 -113 c91 -67 93
-69 136 -163 61 -130 55 -124 154 -189 l88 -58 144 -7 c91 -4 149 -11 156 -19
7 -7 16 -27 19 -46 l7 -33 -178 7 -178 8 -103 66 -103 66 -67 161 -67 161 -68
53 c-38 28 -69 54 -69 56 0 19 53 -7 129 -63z m196 37 c19 -20 19 -20 -26 -20
-36 0 -50 5 -70 26 l-24 27 50 -7 c29 -4 58 -14 70 -26z m216 -57 l44 -28 -64
-3 c-81 -4 -91 0 -91 39 0 30 1 31 34 26 19 -3 53 -18 77 -34z m-33 -105 c3
-16 -6 -18 -76 -18 -72 0 -80 2 -85 20 -5 20 -2 21 76 18 69 -3 82 -6 85 -20z
m222 -3 l23 -25 -75 0 c-60 0 -77 3 -82 16 -12 30 -6 34 52 34 49 0 62 -4 82
-25z m155 -53 c20 -17 49 -71 42 -79 -11 -11 -93 19 -118 43 -30 29 -29 39 6
47 36 9 50 7 70 -11z m-1615 -60 c0 -9 -36 -53 -80 -97 -57 -56 -76 -82 -69
-91 12 -15 -51 -54 -87 -54 -18 0 -66 -37 -169 -127 -122 -109 -141 -130 -128
-140 9 -7 21 -14 27 -16 7 -2 6 -10 -4 -22 -14 -17 -12 -18 34 -13 31 4 56 14
70 28 l21 21 -22 18 c-20 17 -21 22 -11 55 10 33 15 36 48 36 32 0 42 7 91 64
l54 65 56 0 c61 1 76 9 107 62 21 35 24 36 112 48 l91 13 34 69 c27 52 40 69
56 69 12 0 23 -8 26 -19 4 -14 19 -23 55 -31 28 -5 63 -19 79 -30 18 -14 36
-19 52 -15 20 5 32 -3 76 -54 l53 -61 56 0 55 0 -23 25 c-35 38 -13 51 32 20
24 -16 51 -25 76 -25 26 0 45 -7 57 -20 15 -16 31 -20 90 -20 65 0 74 -2 88
-24 9 -13 30 -26 47 -29 20 -5 86 -55 195 -149 90 -79 164 -146 164 -150 1 -5
-57 -8 -127 -8 l-128 0 -44 45 c-44 45 -45 45 -113 45 l-68 0 27 -45 26 -45
-81 0 c-91 0 -78 -10 -162 123 l-49 77 -50 0 c-30 0 -50 -4 -50 -11 0 -6 16
-47 35 -92 19 -44 35 -84 35 -89 0 -4 -135 -8 -300 -8 -212 0 -300 3 -300 11
0 6 7 38 16 71 8 33 13 62 11 65 -3 2 -20 1 -39 -2 -31 -6 -39 -14 -68 -76
l-34 -69 -438 0 -438 0 0 128 0 128 190 110 c104 60 190 112 190 117 0 4 -30
7 -66 7 -58 0 -65 2 -54 15 10 12 38 15 130 15 l117 0 7 -31 c14 -73 22 -66
-218 -205 -197 -113 -221 -130 -198 -135 61 -15 98 -9 138 19 21 16 117 84
212 151 165 117 173 124 157 141 -15 17 -15 19 1 28 11 6 29 6 48 1 44 -13
121 7 140 36 l15 23 -92 6 c-51 4 -110 7 -132 9 l-39 2 29 20 c25 17 53 21
160 26 72 3 145 6 163 7 25 2 32 -2 32 -16z m1284 -28 c17 -7 23 -64 6 -64 -5
0 -31 5 -58 11 -37 7 -52 16 -60 35 -11 24 -11 24 42 24 30 0 61 -3 70 -6z
m183 -20 c16 -4 22 -15 25 -45 l4 -39 -46 0 c-78 0 -90 7 -90 51 l0 39 43 0
c23 0 52 -3 64 -6z"/>
<path d="M1105 833 c-36 -4 -65 -24 -65 -45 0 -5 32 -8 72 -6 69 3 72 4 79 31
8 30 11 29 -86 20z"/>
<path d="M1835 767 c24 -33 33 -37 71 -37 24 0 44 3 43 8 -1 18 -63 54 -101
60 l-41 5 28 -36z"/>
<path d="M1297 773 c-2 -4 -8 -39 -12 -76 l-7 -68 69 7 c37 4 69 7 70 8 1 1
-1 31 -5 66 l-7 65 -52 3 c-28 2 -53 -1 -56 -5z"/>
</g>
</svg>
