<?xml version="1.0" standalone="no"?>
<!DOCTYPE svg PUBLIC "-//W3C//DTD SVG 20010904//EN"
 "http://www.w3.org/TR/2001/REC-SVG-20010904/DTD/svg10.dtd">
<svg version="1.0" xmlns="http://www.w3.org/2000/svg"
 width="300.000000pt" height="300.000000pt" viewBox="0 0 300.000000 300.000000"
 preserveAspectRatio="xMidYMid meet">
<metadata>
Created by potrace 1.10, written by Peter Selinger 2001-2011
</metadata>
<g transform="translate(0.000000,300.000000) scale(0.050000,-0.050000)"
fill="#000000" stroke="none">
<path d="M1520 5740 l0 -259 -55 -12 c-366 -78 -824 -362 -825 -511 0 -6 88 6
195 27 243 48 846 43 862 -7 28 -92 316 -300 703 -509 1325 -716 1506 -879
1506 -1356 l0 -141 -113 -105 c-231 -215 -581 -415 -1183 -676 -669 -291
-1094 -601 -1582 -1152 -278 -315 -664 -819 -776 -1014 -11 -19 15 -25 104
-25 l118 0 159 215 c747 1008 1187 1373 2351 1952 978 485 1174 621 1412 978
103 155 123 171 62 50 -257 -507 -474 -674 -1748 -1345 -286 -150 -569 -310
-630 -355 -320 -239 -793 -778 -1157 -1320 l-104 -155 85 1 86 1 124 194 c501
781 867 1121 1656 1536 1409 741 1670 974 1960 1753 l35 95 218 0 c252 0 240
15 178 -225 -147 -577 -304 -763 -1072 -1275 -1145 -764 -1717 -1305 -2046
-1937 l-85 -163 756 0 756 0 172 225 c403 525 662 792 957 986 388 254 696
562 910 910 l91 147 0 236 0 236 80 0 80 0 0 1240 0 1240 -120 0 -120 0 0
-110 0 -110 -110 0 -110 0 0 110 0 110 -120 0 -120 0 0 -110 0 -110 -110 0
-110 0 0 110 0 110 -120 0 -120 0 0 -110 0 -110 -110 0 -110 0 0 110 0 110
-120 0 -120 0 0 -200 c0 -230 5 -226 -171 -143 -66 32 -309 127 -540 212 -230
85 -538 212 -684 282 l-265 126 0 252 0 251 -60 0 c-51 0 -60 -8 -60 -50 0
-45 -8 -50 -80 -50 -72 0 -80 5 -80 50 0 42 -9 50 -60 50 -51 0 -60 -8 -60
-50 0 -45 -8 -50 -80 -50 -72 0 -80 5 -80 50 0 42 -9 50 -60 50 -51 0 -60 -8
-60 -50 0 -45 -8 -50 -80 -50 -72 0 -80 5 -80 50 0 42 -9 50 -60 50 l-60 0 0
-260z m656 -125 l6 -95 -91 0 c-88 0 -91 2 -91 61 0 173 165 205 176 34z m213
-254 c166 -108 401 -216 813 -372 380 -145 675 -267 823 -342 l95 -48 0 -198
0 -199 -190 129 c-253 171 -385 235 -903 440 -786 311 -952 406 -1056 608
l-32 61 164 0 c157 0 169 -3 286 -79z m331 -751 c0 -19 -19 -30 -50 -30 -31 0
-50 11 -50 30 0 19 19 30 50 30 31 0 50 -11 50 -30z m420 -50 c0 -55 -6 -60
-70 -60 -64 0 -70 5 -70 60 0 55 6 60 70 60 64 0 70 -5 70 -60z m1934 -228
c55 -48 56 -51 56 -285 l0 -237 -185 -6 -185 -6 0 233 c0 323 136 454 314 301z
m-1554 -122 c0 -44 -9 -50 -70 -50 -61 0 -70 6 -70 50 0 44 9 50 70 50 61 0
70 -6 70 -50z m1800 -1790 c0 -59 -2 -60 -100 -60 -98 0 -100 1 -100 60 0 59
2 60 100 60 98 0 100 -1 100 -60z m-920 -490 c0 -47 -7 -50 -100 -50 -93 0
-100 3 -100 50 0 47 7 50 100 50 93 0 100 -3 100 -50z m-200 -590 c0 -59 -2
-60 -100 -60 -98 0 -100 1 -100 60 0 59 2 60 100 60 98 0 100 -1 100 -60z
m-1100 -600 c0 -59 -2 -60 -100 -60 -98 0 -100 1 -100 60 0 59 2 60 100 60 98
0 100 -1 100 -60z m300 -460 c0 -59 -2 -60 -100 -60 -98 0 -100 1 -100 60 0
59 2 60 100 60 98 0 100 -1 100 -60z"/>
</g>
</svg>
