<?xml version="1.0" standalone="no"?>
<!DOCTYPE svg PUBLIC "-//W3C//DTD SVG 20010904//EN"
 "http://www.w3.org/TR/2001/REC-SVG-20010904/DTD/svg10.dtd">
<svg version="1.0" xmlns="http://www.w3.org/2000/svg"
 width="300.000000pt" height="210.000000pt" viewBox="0 0 300.000000 210.000000"
 preserveAspectRatio="xMidYMid meet">
<metadata>
Created by potrace 1.10, written by Peter Selinger 2001-2011
</metadata>
<g transform="translate(0.000000,210.000000) scale(0.100000,-0.100000)"
fill="#000000" stroke="none">
<path d="M1086 1770 c-21 -16 -41 -32 -44 -35 -3 -3 144 -5 326 -4 183 0 332
2 332 4 0 2 -19 17 -42 34 l-42 31 -245 0 -246 -1 -39 -29z"/>
<path d="M2053 1759 c-18 -12 -33 -22 -33 -23 0 -1 23 -3 50 -5 51 -2 64 11
38 37 -16 16 -17 15 -55 -9z"/>
<path d="M1043 1693 c15 -2 37 -2 50 0 12 2 0 4 -28 4 -27 0 -38 -2 -22 -4z"/>
<path d="M1143 1693 c15 -2 39 -2 55 0 15 2 2 4 -28 4 -30 0 -43 -2 -27 -4z"/>
<path d="M1195 1665 c-76 -27 -115 -35 -168 -35 -53 0 -75 -4 -93 -19 -14 -11
-34 -18 -46 -16 -12 3 -39 -8 -65 -25 -24 -17 -47 -30 -51 -30 -4 0 -15 14
-25 32 -14 24 -20 29 -27 18 -7 -11 -11 -11 -24 -1 -13 11 -18 6 -35 -28 -12
-22 -21 -43 -21 -46 0 -3 39 -5 86 -5 76 0 85 -2 74 -15 -9 -11 -36 -16 -99
-17 l-86 -2 84 -3 83 -4 -6 -27 c-3 -15 -11 -60 -18 -99 l-12 -73 -133 -1
c-73 -1 -137 -3 -143 -4 -5 -1 -14 -3 -18 -4 -11 -1 -42 -67 -42 -87 0 -13 23
-15 168 -13 l167 2 3 -50 c2 -41 0 -52 -15 -57 -10 -4 -98 -7 -195 -6 -103 0
-179 -3 -182 -9 -4 -5 -9 -31 -12 -58 -3 -26 -6 -52 -7 -57 -1 -5 75 -9 178
-10 172 -1 180 -2 183 -21 3 -19 -2 -20 -174 -18 -97 2 -184 -2 -193 -7 -12
-6 -22 -5 -28 1 -13 13 -53 -48 -53 -79 0 -21 4 -22 223 -24 l222 -3 0 -52 0
-53 -230 -2 -230 -3 230 -2 c231 -3 244 -6 245 -40 0 -10 -54 -13 -235 -13
l-235 0 0 -30 0 -30 238 0 238 0 -5 -42 -6 -43 -229 -3 c-126 -1 -231 -3 -232
-5 -1 -1 -4 -25 -6 -52 l-3 -50 229 -3 229 -2 -6 -38 c-3 -20 -9 -46 -12 -57
-3 -11 1 -29 8 -40 15 -19 34 -19 835 -23 l821 -4 3 78 3 79 210 3 c133 1 211
6 216 13 3 6 6 29 5 52 l-1 42 -202 3 -203 2 0 45 0 45 199 0 c124 0 202 4
206 10 3 6 3 19 0 30 -6 19 -15 20 -206 20 l-199 0 0 25 0 25 198 3 197 2
-196 3 -196 2 -7 51 c-4 28 -5 53 -3 55 2 2 83 5 179 6 97 2 179 6 182 9 3 3
0 25 -7 50 l-13 44 -188 1 c-186 2 -205 5 -206 36 0 4 83 6 185 5 140 -2 185
1 185 10 0 7 -11 37 -24 68 l-25 55 -160 0 c-155 0 -196 8 -160 31 10 6 11 9
2 9 -7 0 -13 11 -13 24 0 51 2 51 136 48 70 -2 131 1 136 6 5 5 0 28 -12 55
l-21 46 -117 3 -117 3 -8 75 c-4 41 -8 86 -10 100 -1 19 -12 29 -42 42 l-40
17 43 0 c23 1 42 4 42 9 0 4 -15 24 -33 44 -27 30 -36 35 -47 25 -10 -9 -11
-9 -6 0 5 9 -6 12 -44 12 -29 -1 -50 -6 -50 -13 -1 -6 -10 6 -21 26 -23 45
-27 46 -189 53 -69 3 -179 10 -245 15 -66 6 -174 13 -240 15 -117 5 -122 4
-220 -30z m115 -43 c0 -19 -33 -45 -150 -117 -69 -43 -117 -75 -107 -71 10 3
70 37 133 76 l115 71 -7 -76 c-7 -72 -6 -75 15 -75 21 0 21 -1 5 -25 -8 -13
-13 -29 -9 -35 4 -7 -48 -10 -164 -10 l-171 0 0 23 c0 13 -5 28 -12 35 -9 9
-9 12 0 12 6 0 85 45 174 100 162 99 178 107 178 92z m604 -101 c83 -50 157
-91 165 -91 12 0 12 -3 3 -12 -7 -7 -12 -20 -12 -30 0 -10 -8 -18 -17 -19 -15
0 -15 -2 2 -9 12 -5 -45 -9 -147 -9 l-168 -1 -6 28 c-4 15 -11 33 -17 40 -7 8
-5 12 8 12 16 0 17 8 11 76 -4 42 -3 74 1 71 4 -2 61 -37 126 -77 65 -40 120
-71 122 -68 2 2 -54 39 -126 82 -92 56 -129 84 -129 98 0 23 -12 28 184 -91z
m-354 74 c7 -8 10 -24 7 -35 -3 -13 0 -20 9 -20 8 0 14 -4 14 -10 0 -5 -4 -10
-10 -10 -5 0 -10 -5 -10 -11 0 -7 -8 -17 -17 -24 -15 -11 -15 -15 3 -46 19
-32 23 -34 83 -37 53 -3 61 -5 51 -17 -7 -8 -10 -26 -8 -40 l5 -25 -162 0
-162 0 4 24 c3 13 0 27 -6 30 -25 16 -8 26 42 26 52 0 54 1 76 41 l23 40 -22
6 c-13 3 -19 11 -16 19 3 8 1 14 -4 14 -6 0 -10 5 -10 10 0 6 6 10 14 10 9 0
12 7 9 20 -7 28 14 50 47 50 15 0 33 -7 40 -15z m-636 -172 c-11 -51 -13 -53
-54 -53 l-40 0 0 40 0 40 50 0 c50 0 50 0 44 -27z m1280 3 c11 -43 -2 -57 -48
-54 -36 3 -41 6 -38 25 2 12 -2 24 -8 28 -23 14 -7 25 39 25 43 0 50 -3 55
-24z m-1262 -75 c-12 -7 -102 -4 -111 5 -2 2 25 4 60 4 38 0 59 -4 51 -9z
m1241 2 c-18 -2 -48 -2 -65 0 -18 2 -4 4 32 4 36 0 50 -2 33 -4z m-903 -22 c0
-12 -261 -13 -280 0 -10 5 39 9 133 9 84 0 147 -4 147 -9z m761 0 c-19 -12
-269 -12 -277 0 -3 5 56 9 143 9 91 0 143 -4 134 -9z m-1127 -16 c18 -14 14
-15 -42 -15 -81 0 -83 26 -2 29 14 0 34 -6 44 -14z m1300 0 c18 -14 14 -15
-42 -15 -81 0 -83 26 -2 29 14 0 34 -6 44 -14z m-1118 -20 c14 -13 8 -15 -48
-14 -35 1 -55 3 -45 6 9 2 17 9 17 14 0 15 60 10 76 -6z m180 0 c14 -13 8 -15
-48 -14 -35 1 -55 3 -45 6 9 2 17 9 17 14 0 15 60 10 76 -6z m564 6 c0 -5 8
-12 18 -14 9 -3 -12 -5 -48 -5 -36 0 -57 2 -47 5 9 2 17 9 17 14 0 5 14 9 30
9 17 0 30 -4 30 -9z m180 0 c0 -5 8 -12 18 -14 9 -3 -12 -5 -48 -5 -36 0 -57
2 -47 5 9 2 17 9 17 14 0 5 14 9 30 9 17 0 30 -4 30 -9z m-360 -11 c0 -5 -55
-9 -135 -9 -80 0 -135 4 -135 9 0 6 55 10 135 10 80 0 135 -4 135 -10z m-766
-22 c0 -10 -1 -103 -2 -208 -2 -179 -3 -190 -21 -190 -10 0 -22 7 -25 16 -8
22 -8 389 1 398 14 13 48 1 47 -16z m1300 0 c0 -10 -1 -103 -2 -208 l-2 -190
-25 0 -25 0 0 203 c0 112 3 207 7 211 14 13 48 1 47 -16z m-1112 -18 c2 -5 2
-91 0 -190 l-3 -180 -24 0 -24 0 -3 183 c-2 100 -2 185 0 190 5 11 50 9 54 -3z
m180 0 c2 -5 2 -91 0 -190 l-3 -180 -24 0 -24 0 -3 183 c-2 100 -2 185 0 190
5 11 50 9 54 -3z m206 4 c42 -12 22 -24 -38 -24 -33 0 -60 4 -60 9 0 17 58 25
98 15z m186 0 c33 -13 14 -24 -39 -24 -51 0 -72 12 -42 23 18 8 63 8 81 1z
m186 -9 c9 -10 9 -15 1 -15 -8 0 -11 -52 -11 -176 l0 -175 -22 3 c-23 3 -23 6
-28 181 -3 97 -3 182 -2 187 5 15 48 12 62 -5z m180 0 c9 -10 9 -15 1 -15 -8
0 -11 -53 -11 -176 l0 -176 -24 4 c-14 3 -27 0 -30 -7 -5 -15 85 -25 233 -25
98 0 103 -1 98 -20 -4 -14 0 -20 11 -21 11 0 12 -2 5 -6 -7 -2 -13 -17 -13
-31 0 -39 -44 -57 -118 -47 -62 7 -64 7 -257 0 -78 -3 -138 -1 -150 6 -13 6
-107 8 -260 5 -245 -5 -469 -7 -540 -5 -22 0 -64 -2 -92 -6 -74 -10 -110 6
-115 51 -2 19 0 34 5 34 4 0 5 9 2 20 -6 19 -2 20 92 20 54 0 128 3 166 7 l67
6 0 165 c0 140 3 168 17 184 20 22 51 23 75 1 16 -14 18 -34 18 -183 l0 -167
67 -6 c37 -4 98 -4 135 0 l68 6 0 36 0 36 50 -3 50 -4 0 96 c0 90 -1 96 -24
111 -32 21 -63 6 -69 -32 -2 -16 -5 -2 -6 30 -1 45 3 61 19 77 24 24 38 25 67
5 18 -12 27 -13 48 -3 22 10 28 9 36 -3 5 -8 7 -20 4 -27 -3 -8 -5 -79 -5
-158 l0 -144 -25 0 -25 0 -2 153 -2 152 -6 -160 -5 -160 60 -7 c33 -4 94 -5
135 -2 l75 6 -3 142 c-4 164 1 202 29 217 28 15 68 3 79 -24 9 -20 10 -20 9 8
-1 17 -1 36 0 43 1 17 46 15 61 -3z m-566 -47 c0 -10 -1 -85 -2 -168 -2 -143
-3 -150 -22 -150 -19 0 -20 7 -21 133 -1 72 -3 143 -5 157 -4 38 4 52 28 48
14 -2 23 -10 22 -20z m23 -210 c-2 -18 -4 -6 -4 27 0 33 2 48 4 33 2 -15 2
-42 0 -60z m-607 -287 c0 -5 8 -12 18 -14 9 -3 -14 -5 -53 -5 -38 0 -62 2 -52
5 9 2 17 9 17 14 0 5 16 9 35 9 19 0 35 -4 35 -9z m245 0 c-3 -5 3 -12 12 -14
10 -3 -11 -5 -47 -5 -36 0 -57 2 -47 5 9 2 17 9 17 14 0 5 16 9 36 9 19 0 33
-4 29 -9z m145 0 c0 -5 8 -12 18 -14 9 -3 -14 -5 -53 -5 -38 0 -62 2 -52 5 9
2 17 9 17 14 0 5 16 9 35 9 19 0 35 -4 35 -9z m173 2 c-18 -2 -48 -2 -65 0
-18 2 -4 4 32 4 36 0 50 -2 33 -4z m240 0 c-18 -2 -48 -2 -65 0 -18 2 -4 4 32
4 36 0 50 -2 33 -4z m177 -2 c0 -5 8 -12 18 -14 9 -3 -14 -5 -53 -5 -38 0 -62
2 -52 5 9 2 17 9 17 14 0 5 16 9 35 9 19 0 35 -4 35 -9z m140 0 c0 -5 8 -12
18 -14 9 -3 -12 -5 -48 -5 -36 0 -57 2 -47 5 9 2 15 9 12 14 -4 5 10 9 29 9
20 0 36 -4 36 -9z m250 0 c0 -5 8 -12 18 -14 9 -3 -14 -5 -53 -5 -38 0 -62 2
-52 5 9 2 17 9 17 14 0 5 16 9 35 9 19 0 35 -4 35 -9z m-1229 -30 c24 -19 24
-23 27 -220 l3 -201 40 0 39 0 -2 193 -3 192 -2 -182 -3 -183 -30 0 -29 0 -3
185 c-2 102 -1 190 0 195 4 12 62 14 62 3 0 -5 20 -8 45 -8 25 0 45 3 45 8 0
13 47 7 60 -8 9 -10 9 -15 1 -15 -8 0 -11 -54 -11 -180 l0 -180 -25 0 -25 0
-3 183 -2 182 -3 -192 -2 -193 38 0 37 0 -3 176 c-2 147 0 180 13 200 20 30
69 33 85 5 6 -12 10 -96 10 -205 l0 -186 34 0 c19 0 38 5 41 10 3 6 39 9 78 8
l72 -2 -75 -5 c-56 -5 -69 -8 -52 -14 12 -5 63 -5 112 -1 l90 7 0 188 c0 215
3 226 71 215 21 -3 40 -2 44 4 7 12 55 13 55 2 0 -5 20 -8 45 -8 25 1 45 4 45
9 0 12 58 8 63 -5 2 -7 0 -31 -6 -53 -5 -22 -7 -104 -4 -182 l5 -143 -29 0
-29 0 2 175 c1 96 -2 178 -5 182 -4 3 -7 -80 -7 -185 l0 -192 45 0 45 0 0 199
0 200 26 20 c51 40 107 16 119 -51 3 -18 5 -108 3 -200 l-3 -167 50 -3 c38 -2
51 -7 53 -21 3 -16 -37 -17 -743 -17 l-746 0 12 21 c9 18 17 20 57 14 26 -3
79 -7 117 -9 l70 -3 -67 4 -68 4 0 204 0 204 26 20 c33 26 65 27 95 2z m649 7
c0 -3 8 -9 18 -11 9 -3 -10 -5 -43 -6 -60 -1 -68 -16 -10 -23 17 -2 30 -9 29
-15 -1 -7 -2 -89 -2 -183 l-2 -170 -130 0 -130 0 -1 170 c-1 94 -2 176 -3 183
-1 6 13 13 29 15 58 7 50 22 -10 23 -33 1 -52 3 -42 6 9 2 17 8 17 11 0 4 63
7 140 7 77 0 140 -3 140 -7z m-796 -35 c-1 -7 -2 -94 -2 -193 l-2 -180 -25 0
-24 0 -3 188 c-2 103 -1 191 0 195 6 13 57 3 56 -10z m1370 0 c-1 -7 -2 -94
-2 -193 l-2 -180 -25 0 -24 0 -3 188 c-2 103 -1 191 0 195 6 13 57 3 56 -10z"/>
<path d="M1753 1363 c4 -3 10 -3 14 0 3 4 0 7 -7 7 -7 0 -10 -3 -7 -7z"/>
<path d="M1793 1363 c4 -3 10 -3 14 0 3 4 0 7 -7 7 -7 0 -10 -3 -7 -7z"/>
<path d="M1838 1363 c7 -3 16 -2 19 1 4 3 -2 6 -13 5 -11 0 -14 -3 -6 -6z"/>
<path d="M1883 1363 c4 -3 10 -3 14 0 3 4 0 7 -7 7 -7 0 -10 -3 -7 -7z"/>
<path d="M1128 853 c12 -2 30 -2 40 0 9 3 -1 5 -23 4 -22 0 -30 -2 -17 -4z"/>
<path d="M1498 853 c12 -2 32 -2 45 0 12 2 2 4 -23 4 -25 0 -35 -2 -22 -4z"/>
<path d="M1878 853 c12 -2 32 -2 45 0 12 2 2 4 -23 4 -25 0 -35 -2 -22 -4z"/>
<path d="M1778 440 l3 -190 37 0 37 0 -5 192 -5 193 -3 -182 -2 -183 -25 0
-25 0 0 180 c0 99 -3 180 -7 180 -5 0 -7 -85 -5 -190z"/>
<path d="M1148 233 c7 -3 16 -2 19 1 4 3 -2 6 -13 5 -11 0 -14 -3 -6 -6z"/>
<path d="M1875 230 c4 -6 11 -8 16 -5 14 9 11 15 -7 15 -8 0 -12 -5 -9 -10z"/>
<path d="M2011 236 c7 -7 129 -10 136 -3 3 4 -27 7 -67 7 -40 0 -71 -2 -69 -4z"/>
<path d="M1446 614 c-3 -9 -6 -81 -6 -160 l0 -144 80 0 80 0 0 144 c0 79 -3
151 -6 160 -9 23 -139 23 -148 0z"/>
<path d="M1478 293 c23 -2 61 -2 85 0 23 2 4 4 -43 4 -47 0 -66 -2 -42 -4z"/>
<path d="M1603 1693 c15 -2 39 -2 55 0 15 2 2 4 -28 4 -30 0 -43 -2 -27 -4z"/>
<path d="M1713 1693 c4 -3 10 -3 14 0 3 4 0 7 -7 7 -7 0 -10 -3 -7 -7z"/>
<path d="M1753 1693 c4 -3 10 -3 14 0 3 4 0 7 -7 7 -7 0 -10 -3 -7 -7z"/>
<path d="M1953 1693 c4 -3 10 -3 14 0 3 4 0 7 -7 7 -7 0 -10 -3 -7 -7z"/>
<path d="M2073 1693 c9 -2 25 -2 35 0 9 3 1 5 -18 5 -19 0 -27 -2 -17 -5z"/>
<path d="M2133 1693 c4 -3 10 -3 14 0 3 4 0 7 -7 7 -7 0 -10 -3 -7 -7z"/>
<path d="M558 1413 c7 -3 16 -2 19 1 4 3 -2 6 -13 5 -11 0 -14 -3 -6 -6z"/>
<path d="M633 1413 c26 -2 67 -2 90 0 23 2 2 3 -48 3 -49 0 -68 -1 -42 -3z"/>
<path d="M2328 1413 c7 -3 16 -2 19 1 4 3 -2 6 -13 5 -11 0 -14 -3 -6 -6z"/>
<path d="M288 223 c6 -2 18 -2 25 0 6 3 1 5 -13 5 -14 0 -19 -2 -12 -5z"/>
<path d="M508 223 c17 -2 47 -2 65 0 17 2 3 4 -33 4 -36 0 -50 -2 -32 -4z"/>
</g>
</svg>
