<?xml version="1.0" standalone="no"?>
<!DOCTYPE svg PUBLIC "-//W3C//DTD SVG 20010904//EN"
 "http://www.w3.org/TR/2001/REC-SVG-20010904/DTD/svg10.dtd">
<svg version="1.0" xmlns="http://www.w3.org/2000/svg"
 width="300.000000pt" height="200.000000pt" viewBox="0 0 300.000000 200.000000"
 preserveAspectRatio="xMidYMid meet">
<metadata>
Created by potrace 1.10, written by Peter Selinger 2001-2011
</metadata>
<g transform="translate(0.000000,200.000000) scale(0.100000,-0.100000)"
fill="#000000" stroke="none">
<path d="M403 1687 c-33 -36 -46 -68 -34 -80 16 -16 13 -57 -4 -63 -17 -7 -20
-40 -5 -49 6 -4 10 -64 10 -146 0 -133 -1 -142 -22 -159 -21 -17 -21 -18 -5
-43 14 -21 17 -51 17 -159 0 -122 -2 -134 -20 -146 -25 -15 -25 -27 0 -59 16
-21 19 -35 14 -82 -3 -31 -10 -65 -15 -76 -5 -11 -8 -67 -7 -125 l3 -105 29
-3 c16 -2 40 2 53 9 19 10 28 10 43 1 26 -16 2115 -18 2125 -2 8 13 55 13 55
-1 0 -6 16 -9 38 -7 l37 3 3 117 c2 111 1 118 -17 118 -30 0 -35 101 -7 153
l21 39 -23 18 c-21 17 -22 26 -22 145 0 97 4 133 16 157 16 30 16 33 -5 49
-20 16 -21 27 -21 153 0 84 5 145 12 162 11 23 10 28 -7 40 -17 13 -18 18 -8
45 10 25 9 37 -2 58 -31 61 -66 65 -102 12 -17 -25 -20 -38 -13 -51 14 -27 12
-51 -6 -71 -13 -14 -13 -22 -4 -39 8 -15 11 -70 11 -157 -2 -120 -4 -136 -22
-154 -20 -20 -20 -20 -1 -52 17 -28 19 -46 14 -156 -4 -110 -7 -127 -25 -141
l-20 -17 21 -35 c26 -42 29 -109 7 -152 -8 -15 -15 -39 -15 -52 0 -20 -5 -24
-30 -24 l-30 0 0 64 c0 55 -3 64 -20 69 -16 4 -20 14 -20 49 0 24 7 53 15 65
15 21 11 53 -6 53 -14 0 -11 197 3 220 10 15 9 22 -5 38 -14 15 -17 38 -17
116 0 53 5 106 11 117 7 15 7 24 -1 35 -7 8 -9 25 -6 39 8 32 -26 85 -54 85
-25 0 -53 -54 -44 -82 3 -11 0 -31 -6 -44 -10 -18 -10 -26 -1 -38 16 -19 4
-217 -13 -228 -7 -5 -7 -17 2 -41 18 -50 16 -213 -3 -221 -17 -6 -20 -42 -5
-51 13 -8 13 -112 0 -120 -5 -3 -10 -33 -10 -66 l0 -59 -70 0 -70 0 -1 263
c-1 144 -1 268 0 275 1 8 -6 23 -16 34 -10 11 -17 22 -15 24 7 12 0 24 -14 24
-32 0 -64 -48 -64 -96 0 -32 -4 -44 -15 -44 -12 0 -15 14 -15 70 0 58 -3 72
-17 77 -32 12 -91 64 -96 85 -7 25 -29 19 -42 -10 -15 -33 -22 -27 -28 24 -7
68 -50 119 -155 189 -81 53 -91 63 -86 84 7 34 -14 81 -37 81 -22 0 -41 -39
-37 -78 3 -22 -8 -33 -69 -74 -122 -81 -173 -145 -173 -218 0 -36 -11 -39 -25
-7 -12 27 -24 28 -39 2 -6 -11 -17 -24 -25 -29 -7 -4 -21 -16 -31 -26 -10 -10
-26 -20 -37 -22 -13 -2 -18 -13 -19 -38 -1 -94 -4 -110 -19 -110 -11 0 -15 12
-15 44 0 34 -6 52 -25 72 -27 29 -55 27 -55 -5 0 -11 -5 -21 -11 -23 -13 -4
-15 -52 -17 -345 l-2 -223 -70 0 -70 0 0 64 c0 48 -4 65 -15 70 -20 7 -20 77
0 115 12 24 12 31 1 40 -8 7 -16 47 -20 106 -5 79 -4 99 10 120 15 24 15 27 0
44 -14 15 -16 42 -15 179 2 136 -1 165 -15 186 -35 54 -95 10 -82 -59 4 -19 3
-35 -2 -35 -4 0 -6 -56 -4 -125 4 -108 2 -128 -13 -145 -15 -17 -15 -20 0 -43
13 -21 15 -41 10 -114 -4 -48 -12 -98 -18 -111 -8 -18 -8 -28 1 -42 15 -24 16
-106 2 -115 -5 -3 -10 -35 -10 -71 l0 -64 -30 0 c-27 0 -30 3 -30 31 0 22 -5
32 -19 36 -16 4 -21 17 -27 61 -6 48 -4 62 15 94 21 37 21 38 2 57 -17 17 -20
37 -22 148 -3 110 -1 132 15 155 17 26 17 27 -2 46 -18 18 -21 36 -23 154 -2
94 1 140 10 156 11 20 10 26 -3 41 -18 20 -20 44 -7 70 12 21 -16 74 -47 90
-15 8 -23 6 -39 -12z m51 -22 c4 -11 -2 -15 -24 -15 -29 0 -38 9 -23 23 12 12
41 7 47 -8z m2174 -2 c2 -9 -7 -13 -27 -13 -30 0 -39 9 -24 24 11 10 46 3 51
-11z m-1101 -50 c-4 -3 -10 -3 -14 0 -3 4 0 7 7 7 7 0 10 -3 7 -7z m-1070 -55
c-3 -7 -5 -2 -5 12 0 14 2 19 5 13 2 -7 2 -19 0 -25z m1083 17 c0 -8 -9 -15
-20 -15 -11 0 -20 7 -20 15 0 8 9 15 20 15 11 0 20 -7 20 -15z m1087 -17 c-3
-7 -5 -2 -5 12 0 14 2 19 5 13 2 -7 2 -19 0 -25z m-50 0 c-3 -8 -6 -5 -6 6 -1
11 2 17 5 13 3 -3 4 -12 1 -19z m-1050 -25 c-4 -3 -10 -3 -14 0 -3 4 0 7 7 7
7 0 10 -3 7 -7z m-21 -70 c-11 -11 -17 4 -9 23 7 18 8 18 11 1 2 -10 1 -21 -2
-24z m-801 17 c3 -5 -3 -10 -15 -10 -12 0 -18 5 -15 10 3 6 10 10 15 10 5 0
12 -4 15 -10z m769 -5 c-4 -8 -11 -15 -16 -15 -6 0 -5 6 2 15 7 8 14 15 16 15
2 0 1 -7 -2 -15z m76 -6 c0 -5 -4 -9 -10 -9 -5 0 -10 7 -10 16 0 8 5 12 10 9
6 -3 10 -10 10 -16z m31 4 c13 -16 12 -17 -3 -4 -10 7 -18 15 -18 17 0 8 8 3
21 -13z m774 7 c3 -5 -3 -10 -15 -10 -12 0 -18 5 -15 10 3 6 10 10 15 10 5 0
12 -4 15 -10z m-1885 -145 l0 -135 -40 0 -40 0 0 135 0 135 40 0 40 0 0 -135z
m2170 0 l0 -135 -40 0 -40 0 0 135 0 135 40 0 40 0 0 -135z m-1213 119 c-3 -3
-12 -4 -19 -1 -8 3 -5 6 6 6 11 1 17 -2 13 -5z m210 -1 c-4 -3 -10 -3 -14 0
-3 4 0 7 7 7 7 0 10 -3 7 -7z m75 -50 c41 -39 68 -95 68 -143 0 -38 -1 -39
-20 -28 -16 10 -24 10 -40 0 -28 -17 -381 -17 -398 0 -10 10 -17 10 -32 0 -29
-18 -30 -16 -30 29 0 53 23 100 69 141 l36 33 159 -2 159 -2 29 -28z m-1005 0
c-4 -3 -7 0 -7 7 0 7 3 10 7 7 3 -4 3 -10 0 -14z m1660 0 c-4 -3 -7 0 -7 7 0
7 3 10 7 7 3 -4 3 -10 0 -14z m-1649 -175 l3 -98 -31 0 -30 0 0 93 c0 52 3 97
7 101 4 4 16 6 28 4 18 -3 20 -11 23 -100z m1646 90 c3 -7 7 -52 10 -100 l5
-88 -34 0 -35 0 0 93 c0 52 3 97 7 100 11 12 43 8 47 -5z m-1056 -232 c-4 -6
-7 24 -6 65 l1 74 7 -65 c4 -36 3 -69 -2 -74z m439 127 c-4 -3 -10 -3 -14 0
-3 4 0 7 7 7 7 0 10 -3 7 -7z m-477 -32 c5 -11 10 -22 10 -25 0 -8 -155 -8
-163 0 -3 4 -2 15 4 25 15 28 134 28 149 0z m648 7 c29 -29 13 -38 -68 -38
-79 0 -86 3 -74 34 8 20 123 23 142 4z m-824 -84 c-2 -89 -14 -95 -14 -6 0 40
3 72 8 72 4 0 6 -30 6 -66z m656 26 c0 -22 -4 -40 -10 -40 -11 0 -13 39 -4 64
10 26 14 19 14 -24z m207 -67 c-2 -21 -4 -4 -4 37 0 41 2 58 4 38 2 -21 2 -55
0 -75z m-980 0 c-2 -21 -4 -6 -4 32 0 39 2 55 4 38 2 -18 2 -50 0 -70z m1100
90 c-4 -3 -10 -3 -14 0 -3 4 0 7 7 7 7 0 10 -3 7 -7z m-1619 -20 c-16 -2 -40
-2 -55 0 -16 2 -3 4 27 4 30 0 43 -2 28 -4z m2180 0 c-15 -2 -42 -2 -60 0 -18
2 -6 4 27 4 33 0 48 -2 33 -4z m-1631 -80 c-2 -16 -4 -3 -4 27 0 30 2 43 4 28
2 -16 2 -40 0 -55z m1042 39 c0 -15 -4 -36 -9 -47 -6 -15 -9 -6 -9 33 -1 33 3
51 9 47 6 -3 10 -18 9 -33z m-339 13 c0 -13 -28 -15 -190 -15 -162 0 -190 2
-190 15 0 13 28 15 190 15 162 0 190 -2 190 -15z m370 -42 c0 -18 -4 -33 -10
-33 -5 0 -10 21 -10 48 0 34 3 43 10 32 5 -8 10 -30 10 -47z m-1600 -83 l0
-130 -50 0 -50 0 0 130 0 130 50 0 50 0 0 -130z m2170 0 l0 -130 -50 0 -50 0
0 130 0 130 50 0 50 0 0 -130z m-1490 80 c0 -29 -4 -40 -15 -40 -10 0 -15 10
-15 33 0 19 3 37 7 40 15 16 23 5 23 -33z m48 -3 c2 -28 -1 -37 -12 -37 -12 0
-16 11 -16 41 0 52 24 48 28 -4z m42 3 c0 -22 -4 -40 -10 -40 -5 0 -10 18 -10
40 0 22 5 40 10 40 6 0 10 -18 10 -40z m568 -3 c2 -28 -1 -37 -12 -37 -12 0
-16 11 -16 41 0 52 24 48 28 -4z m42 3 c0 -22 -4 -40 -10 -40 -5 0 -10 18 -10
40 0 22 5 40 10 40 6 0 10 -18 10 -40z m50 0 c0 -29 -4 -40 -15 -40 -10 0 -15
10 -15 33 0 19 3 37 7 40 15 16 23 5 23 -33z m-162 -7 c-3 -11 -10 -16 -19
-13 -31 11 -391 11 -404 0 -9 -8 -15 -8 -20 0 -16 26 14 30 226 30 205 0 220
-1 217 -17z m-1020 -100 l3 -93 -41 0 -40 0 0 88 c0 49 3 92 7 96 4 4 21 6 38
4 l30 -3 3 -92z m1652 2 l0 -95 -41 0 -42 0 7 61 c3 34 6 77 6 95 0 32 2 34
35 34 l35 0 0 -95z m-827 76 l147 -1 -2 -247 -2 -248 -6 235 -5 235 -160 0
-160 0 -5 -235 -6 -235 -2 246 c-1 135 0 248 3 251 3 2 15 4 27 2 13 -1 89 -3
171 -3z m-483 -26 c0 -12 -14 -15 -65 -15 -70 0 -89 16 -27 23 81 8 92 7 92
-8z m260 -225 c0 -153 -4 -240 -10 -240 -6 0 -10 87 -10 240 0 153 4 240 10
240 6 0 10 -87 10 -240z m397 -122 c-1 -68 -3 -13 -3 122 0 135 2 190 3 123 2
-68 2 -178 0 -245z m132 343 l91 4 -2 -235 -2 -235 -6 225 -5 225 -80 0 -80 0
-3 -222 c-1 -137 -6 -223 -12 -223 -6 0 -10 91 -10 243 0 138 4 236 9 228 6
-10 31 -12 100 -10z m219 9 c12 0 22 -4 22 -10 0 -6 -28 -10 -65 -10 -36 0
-65 4 -65 8 0 18 16 24 50 18 19 -3 45 -6 58 -6z m-790 -240 l-2 -235 -6 225
-5 225 -85 0 -85 0 -5 -225 -6 -225 -2 235 -2 235 100 0 100 0 -2 -235z m382
-5 c0 -143 -4 -225 -10 -225 -6 0 -10 78 -10 215 l0 216 -127 -3 -128 -3 -5
-215 -6 -215 -2 228 -2 227 145 0 145 0 0 -225z m-610 139 l0 -47 -22 28 -22
28 -23 -27 -23 -27 0 45 0 46 45 0 45 0 0 -46z m180 4 l0 -41 -26 24 -26 24
-24 -28 -24 -28 0 45 0 46 50 0 50 0 0 -42z m390 -35 l0 -77 -53 52 -53 52
-29 -31 c-17 -17 -42 -40 -57 -51 l-28 -19 0 75 0 76 110 0 110 0 0 -77z m280
30 l0 -47 -29 28 -30 28 -25 -27 -26 -28 0 47 0 46 55 0 55 0 0 -47z m160 6
l0 -41 -20 23 -20 24 -25 -28 -25 -28 0 45 0 46 45 0 45 0 0 -41z m-1040 -124
c0 -16 -6 -25 -15 -25 -9 0 -15 9 -15 25 0 16 6 25 15 25 9 0 15 -9 15 -25z
m180 0 c0 -16 -6 -25 -15 -25 -9 0 -15 9 -15 25 0 16 6 25 15 25 9 0 15 -9 15
-25z m660 0 c0 -16 -6 -25 -15 -25 -9 0 -15 9 -15 25 0 16 6 25 15 25 9 0 15
-9 15 -25z m170 0 c0 -14 -4 -25 -10 -25 -5 0 -10 11 -10 25 0 14 5 25 10 25
6 0 10 -11 10 -25z m-613 -26 c-8 -21 -13 -26 -15 -15 -2 10 2 23 8 31 18 22
20 18 7 -16z m-964 14 c-18 -2 -48 -2 -65 0 -18 2 -4 4 32 4 36 0 50 -2 33 -4z
m267 -37 c0 -51 -9 -60 -50 -51 -28 6 -30 10 -30 51 l0 44 40 0 40 0 0 -44z
m800 34 c0 -5 -4 -10 -10 -10 -5 0 -10 5 -10 10 0 6 5 10 10 10 6 0 10 -4 10
-10z m100 -10 c0 -11 -2 -20 -4 -20 -2 0 -6 9 -9 20 -3 11 -1 20 4 20 5 0 9
-9 9 -20z m758 -21 c4 -45 -16 -63 -58 -54 -28 6 -30 10 -30 51 l0 45 43 -3
c40 -3 42 -4 45 -39z m249 34 c-20 -2 -52 -2 -70 0 -17 2 0 4 38 4 39 0 53 -2
32 -4z m-2149 -85 c3 -50 1 -57 -18 -63 -11 -4 -39 -4 -60 0 l-40 7 0 59 0 60
58 -3 57 -3 3 -57z m2172 3 c0 -68 -11 -78 -80 -66 l-40 7 0 59 0 59 60 0 60
0 0 -59z m-1130 39 c0 -5 -4 -10 -10 -10 -5 0 -10 5 -10 10 0 6 5 10 10 10 6
0 10 -4 10 -10z m-470 -42 l0 -43 -20 25 -19 25 -25 -24 -26 -24 0 41 0 42 45
0 45 0 0 -42z m180 0 l0 -41 -25 23 -25 23 -25 -23 -25 -23 0 41 0 42 50 0 50
0 0 -42z m670 -4 l0 -47 -25 27 c-30 33 -38 33 -64 0 l-21 -27 0 47 0 46 55 0
55 0 0 -46z m160 5 l0 -41 -20 23 -20 24 -25 -28 -25 -28 0 45 0 46 45 0 45 0
0 -41z m-540 1 c0 -5 -4 -10 -10 -10 -5 0 -10 5 -10 10 0 6 5 10 10 10 6 0 10
-4 10 -10z m-870 -70 c0 -47 -3 -60 -15 -60 -12 0 -15 13 -15 60 0 47 3 60 15
60 12 0 15 -13 15 -60z m105 -6 c0 -46 -3 -59 -15 -59 -11 0 -16 13 -18 49 -4
56 3 79 21 73 8 -2 12 -24 12 -63z m1553 3 c3 -52 1 -57 -18 -57 -18 0 -20 6
-20 53 0 30 3 57 7 61 17 16 28 -5 31 -57z m102 3 c0 -53 -2 -60 -20 -60 -17
0 -20 7 -20 53 0 56 4 67 27 67 9 0 13 -17 13 -60z m-890 10 c0 -5 -4 -10 -10
-10 -5 0 -10 5 -10 10 0 6 5 10 10 10 6 0 10 -4 10 -10z m-1130 -120 c0 -100
0 -100 -25 -100 -25 0 -25 0 -25 100 0 100 0 100 25 100 25 0 25 0 25 -100z
m130 0 c0 -100 0 -100 -25 -100 -25 0 -25 0 -25 100 0 100 0 100 25 100 25 0
25 0 25 -100z m2040 0 c0 -100 0 -100 -25 -100 -25 0 -25 0 -25 100 0 100 0
100 25 100 25 0 25 0 25 -100z m130 0 c0 -100 0 -100 -25 -100 -25 0 -25 0
-25 100 0 100 0 100 25 100 25 0 25 0 25 -100z m-1170 80 c0 -5 -4 -10 -10
-10 -5 0 -10 5 -10 10 0 6 5 10 10 10 6 0 10 -4 10 -10z m-500 -25 c0 -16 -6
-25 -15 -25 -9 0 -15 9 -15 25 0 16 6 25 15 25 9 0 15 -9 15 -25z m180 0 c0
-16 -6 -25 -15 -25 -9 0 -15 9 -15 25 0 16 6 25 15 25 9 0 15 -9 15 -25z m660
0 c0 -16 -6 -25 -15 -25 -9 0 -15 9 -15 25 0 16 6 25 15 25 9 0 15 -9 15 -25z
m170 0 c0 -14 -4 -25 -10 -25 -5 0 -10 11 -10 25 0 14 5 25 10 25 6 0 10 -11
10 -25z m-510 -15 c0 -5 -4 -10 -10 -10 -5 0 -10 5 -10 10 0 6 5 10 10 10 6 0
10 -4 10 -10z m-637 -17 c-18 -2 -33 -8 -33 -12 0 -5 297 -9 660 -9 363 0 660
4 660 9 0 4 -15 10 -32 12 -18 2 55 4 162 4 107 0 178 -2 158 -4 -21 -2 -38
-9 -38 -15 0 -6 15 -8 35 -6 32 4 35 2 35 -21 0 -23 -1 -23 -19 -7 -17 16 -20
16 -35 1 -9 -9 -16 -27 -16 -40 0 -20 6 -24 38 -28 20 -2 -404 -4 -943 -4
-539 0 -965 2 -947 4 26 4 32 9 32 28 0 33 -28 59 -46 44 -11 -9 -14 -8 -14 5
0 11 9 16 30 16 40 0 38 18 -2 23 -18 2 53 4 157 4 105 0 175 -2 158 -4z"/>
<path d="M620 520 c0 -5 16 -10 35 -10 19 0 35 5 35 10 0 6 -16 10 -35 10 -19
0 -35 -4 -35 -10z"/>
<path d="M700 520 c0 -5 16 -10 35 -10 19 0 35 5 35 10 0 6 -16 10 -35 10 -19
0 -35 -4 -35 -10z"/>
<path d="M780 520 c0 -5 14 -10 30 -10 17 0 30 5 30 10 0 6 -13 10 -30 10 -16
0 -30 -4 -30 -10z"/>
<path d="M2200 520 c0 -5 14 -10 30 -10 17 0 30 5 30 10 0 6 -13 10 -30 10
-16 0 -30 -4 -30 -10z"/>
<path d="M2280 520 c0 -5 14 -10 30 -10 17 0 30 5 30 10 0 6 -13 10 -30 10
-16 0 -30 -4 -30 -10z"/>
<path d="M2350 520 c0 -5 16 -10 35 -10 19 0 35 5 35 10 0 6 -16 10 -35 10
-19 0 -35 -4 -35 -10z"/>
<path d="M637 482 c-10 -10 -17 -28 -17 -40 0 -18 6 -22 35 -22 30 0 35 3 35
23 0 13 -8 31 -18 41 -18 15 -20 15 -35 -2z"/>
<path d="M717 482 c-10 -10 -17 -28 -17 -40 0 -18 6 -22 35 -22 30 0 35 3 35
23 0 13 -8 31 -18 41 -18 15 -20 15 -35 -2z"/>
<path d="M796 485 c-9 -9 -16 -27 -16 -41 0 -21 5 -24 35 -24 30 0 35 3 35 23
0 13 -8 32 -19 41 -17 16 -20 16 -35 1z"/>
<path d="M878 489 c-10 -6 -18 -22 -18 -37 0 -27 1 -27 70 -29 55 -1 70 2 70
13 0 8 5 14 10 14 6 0 10 -7 10 -15 0 -10 10 -15 30 -15 27 0 30 3 30 30 0 38
-28 55 -53 33 -13 -13 -20 -14 -29 -5 -17 17 -46 15 -57 -5 -8 -16 -11 -16
-28 5 -14 17 -22 19 -35 11z"/>
<path d="M1112 488 c-7 -7 -12 -25 -12 -40 0 -24 4 -28 30 -28 27 0 30 3 30
30 0 34 -29 57 -48 38z"/>
<path d="M1187 482 c-10 -10 -17 -28 -17 -40 0 -18 6 -22 35 -22 30 0 35 3 35
23 0 13 -8 31 -18 41 -18 15 -20 15 -35 -2z"/>
<path d="M1267 482 c-10 -10 -17 -28 -17 -40 0 -18 6 -22 35 -22 30 0 35 3 35
23 0 13 -8 31 -18 41 -18 15 -20 15 -35 -2z"/>
<path d="M1347 485 c-9 -9 -17 -27 -17 -41 0 -21 5 -24 35 -24 28 0 35 4 35
19 0 10 -8 29 -18 41 -17 21 -19 21 -35 5z"/>
<path d="M1427 489 c-10 -6 -17 -22 -17 -39 0 -27 3 -30 30 -30 26 0 30 3 30
29 0 36 -19 53 -43 40z"/>
<path d="M1582 488 c-7 -7 -12 -25 -12 -40 0 -24 4 -28 30 -28 27 0 30 3 30
30 0 34 -29 57 -48 38z"/>
<path d="M1656 478 c-27 -39 -21 -58 19 -58 32 0 35 2 35 30 0 42 -33 59 -54
28z"/>
<path d="M1737 482 c-10 -10 -17 -28 -17 -40 0 -18 6 -22 35 -22 30 0 35 3 35
23 0 13 -8 31 -18 41 -18 15 -20 15 -35 -2z"/>
<path d="M1817 482 c-10 -10 -17 -28 -17 -40 0 -18 6 -22 35 -22 30 0 35 3 35
23 0 13 -8 31 -18 41 -18 15 -20 15 -35 -2z"/>
<path d="M1896 485 c-9 -9 -16 -27 -16 -41 0 -21 5 -24 35 -24 30 0 35 3 35
23 0 13 -8 32 -19 41 -17 16 -20 16 -35 1z"/>
<path d="M1977 489 c-10 -6 -17 -22 -17 -39 0 -27 3 -30 30 -30 26 0 30 3 30
29 0 36 -19 53 -43 40z"/>
<path d="M2212 488 c-7 -7 -12 -25 -12 -40 0 -24 4 -28 30 -28 27 0 30 3 30
30 0 34 -29 57 -48 38z"/>
<path d="M2287 482 c-10 -10 -17 -28 -17 -40 0 -18 6 -22 35 -22 30 0 35 3 35
23 0 13 -8 31 -18 41 -18 15 -20 15 -35 -2z"/>
<path d="M2367 482 c-10 -10 -17 -28 -17 -40 0 -18 6 -22 35 -22 30 0 35 3 35
23 0 13 -8 31 -18 41 -18 15 -20 15 -35 -2z"/>
<path d="M1497 484 c-4 -4 -7 -20 -7 -36 0 -25 4 -28 31 -28 28 0 30 2 27 33
-2 23 -8 33 -23 35 -12 2 -24 0 -28 -4z"/>
<path d="M2047 484 c-4 -4 -7 -20 -7 -36 0 -25 4 -28 31 -28 28 0 30 2 27 33
-2 23 -8 33 -23 35 -12 2 -24 0 -28 -4z"/>
<path d="M2127 484 c-4 -4 -7 -20 -7 -36 0 -25 4 -28 31 -28 28 0 30 2 27 33
-2 23 -8 33 -23 35 -12 2 -24 0 -28 -4z"/>
</g>
</svg>
